# xmcd CD database file
#
# Track frame offsets:
#	150
#	29092
#	57335
#	84747
#	119150
#	140252
#	176737
#	196730
#	212907
#	249237
#	274592
#	285522
#
# Disc length: 3987 seconds
#
# Revision: 0
# Processed by: cddbd v1.5.2PL0 Copyright (c) Steve Scherf et al.
# Submitted via: CDex 1.70beta2
#
DISCID=b60f910c
DTITLE=林栄一 - Monk's Mood
DYEAR=1900
DGENRE=Jazz
TTITLE0=Monk's Mood
TTITLE1=Misterioso
TTITLE2=Pannonica
TTITLE3=Body And Soul
TTITLE4=Donna Lee
TTITLE5=Four In One
TTITLE6=Inside of The Earth 
TTITLE7=Cross Ball
TTITLE8=White Noise
TTITLE9=Improvisation #2
TTITLE10=Monk's Mood(Alt)
TTITLE11=Body And Soul(Alt)
EXTD=
EXTT0=
EXTT1=
EXTT2=
EXTT3=
EXTT4=
EXTT5=
EXTT6=
EXTT7=
EXTT8=
EXTT9=
EXTT10=
EXTT11=
PLAYORDER=
